<svg width="32" height="32" viewBox="0 0 32 32" fill="none" xmlns="http://www.w3.org/2000/svg">
<path d="M6.454 19.4219C6.454 19.4219 1 21.3599 1 23.5259C1 25.9259 9.522 28.9999 14.636 28.9999C20.09 28.9999 28.272 22.1579 28.272 22.1579" stroke="#444444" stroke-linecap="round" stroke-linejoin="round"/>
<path d="M31 20.8C31 20.8 27.364 23.536 18.728 23.536C10.092 23.536 6.454 20.8 6.454 20.8V15.316C6.44869 12.0552 7.7388 8.9259 10.0406 6.61626C12.3423 4.30662 15.4672 3.00583 18.728 3V3C20.3425 3.00289 21.9406 3.32374 23.431 3.94424C24.9215 4.56474 26.2752 5.47273 27.4147 6.61638C28.5543 7.76003 29.4574 9.11693 30.0726 10.6096C30.6878 12.1023 31.0029 13.7015 31 15.316V20.8Z" stroke="#444444" stroke-linecap="round" stroke-linejoin="round"/>
</svg>
