<?xml version="1.0" encoding="UTF-8" standalone="no"?>
<svg xmlns="http://www.w3.org/2000/svg" version="1.1" viewBox="0.00 0.00 500.00 500.00">
<g stroke-width="2.00" fill="none" stroke-linecap="butt">
<path stroke="#8e9c91" vector-effect="non-scaling-stroke" d="
  M 438.47 252.07
  A 186.94 186.94 0.0 0 0 251.53 65.13
  A 186.94 186.94 0.0 0 0 64.59 252.07
  A 186.94 186.94 0.0 0 0 251.53 439.01
  A 186.94 186.94 0.0 0 0 438.47 252.07"
/>
<path stroke="#635a37" vector-effect="non-scaling-stroke" d="
  M 108.33 330.39
  Q 113.31 340.99 123.05 345.62"
/>
<path stroke="#514b2d" vector-effect="non-scaling-stroke" d="
  M 123.05 345.62
  Q 135.37 353.03 146.74 355.81
  Q 190.22 366.47 232.64 349.18
  Q 235.24 348.12 238.23 344.00"
/>
<path stroke="#635a37" vector-effect="non-scaling-stroke" d="
  M 238.23 344.00
  Q 240.15 342.15 240.77 339.00
  Q 241.52 335.21 241.91 329.98"
/>
<path stroke="#8e9c91" vector-effect="non-scaling-stroke" d="
  M 241.91 329.98
  Q 242.23 310.12 242.21 290.75
  C 242.21 286.47 230.06 275.94 226.65 272.95
  C 221.00 268.02 216.15 262.51 208.24 263.47
  C 188.27 265.90 168.36 272.95 148.01 274.02
  Q 145.85 274.14 147.61 275.40
  C 158.03 282.85 173.77 284.54 185.96 281.83
  Q 191.25 280.65 196.51 279.30
  C 201.06 278.14 206.30 278.78 207.22 284.26
  Q 208.12 289.63 202.55 292.33
  C 184.56 301.04 164.01 300.52 146.05 292.26
  C 126.62 283.31 114.03 265.37 110.98 244.20
  Q 110.20 238.77 110.24 235.51
  C 110.67 203.93 124.53 174.16 145.63 151.12
  C 170.58 123.90 203.87 107.05 240.70 104.19
  C 280.05 101.14 316.93 114.13 346.56 140.43
  C 372.11 163.10 390.72 195.85 392.79 229.99
  C 395.68 277.67 351.54 310.00 306.98 295.53
  Q 301.99 293.91 298.84 291.42
  C 292.84 286.67 296.25 277.77 304.26 279.00
  Q 307.58 279.51 314.80 281.52
  Q 325.58 284.51 336.49 282.96
  A 0.44 0.44 0.0 0 0 336.75 282.23
  Q 330.59 275.52 322.55 271.70
  C 316.28 268.72 306.26 266.72 299.73 264.83
  C 292.66 262.78 288.95 265.25 282.30 269.23
  C 276.31 272.82 260.47 284.71 260.33 292.32
  Q 259.95 313.39 260.18 323.50
  Q 260.26 326.88 261.45 330.04"
/>
<path stroke="#635a37" vector-effect="non-scaling-stroke" d="
  M 261.45 330.04
  C 262.54 335.71 266.50 342.83 273.00 342.73
  Q 289.32 342.47 305.07 342.65
  Q 306.16 342.66 305.35 343.39
  Q 302.31 346.09 299.03 348.51
  C 258.60 378.21 206.66 390.87 156.99 384.02
  Q 154.52 383.68 156.63 385.01
  Q 167.79 392.05 180.54 398.77
  C 182.92 400.02 185.29 400.78 187.75 400.70
  C 216.07 399.80 244.48 394.28 270.58 382.32
  Q 288.48 374.11 298.45 367.95
  C 319.89 354.70 342.39 340.56 366.57 332.96
  Q 370.22 331.81 373.98 330.41"
/>
<path stroke="#8e9c91" vector-effect="non-scaling-stroke" d="
  M 373.98 330.41
  Q 379.67 329.46 385.92 329.27
  C 388.44 329.19 391.41 329.96 394.24 330.01
  A 0.84 0.84 0.0 0 0 395.00 329.56
  Q 409.60 302.06 412.66 270.98
  Q 413.33 264.09 413.77 257.17
  C 414.24 249.76 413.59 244.23 413.13 237.59
  C 410.41 198.41 391.89 161.49 364.43 134.46
  C 343.88 114.22 317.10 99.40 289.49 92.57
  Q 242.57 80.97 196.04 98.08
  C 173.77 106.26 151.68 120.04 135.14 137.52
  C 105.29 169.07 88.08 211.03 88.89 254.99
  Q 89.63 295.04 108.33 330.39"
/>
<path stroke="#ccb595" vector-effect="non-scaling-stroke" d="
  M 373.98 330.41
  Q 371.77 329.99 369.00 330.00
  Q 335.68 330.13 261.45 330.04"
/>
<path stroke="#ccb595" vector-effect="non-scaling-stroke" d="
  M 241.91 329.98
  L 108.33 330.39"
/>
<path stroke="#8f6431" vector-effect="non-scaling-stroke" d="
  M 238.23 344.00
  Q 227.70 343.60 225.00 343.98
  C 215.81 345.24 207.04 347.70 197.75 348.70
  Q 191.64 349.36 170.13 348.68
  Q 163.00 348.45 158.25 347.80
  Q 141.97 345.57 127.50 344.90
  Q 126.04 344.84 123.05 345.62"
/>
<path stroke="#40672e" vector-effect="non-scaling-stroke" d="
  M 191.39 134.45
  Q 181.43 140.18 172.49 147.38
  A 0.63 0.62 32.7 0 0 172.73 148.47
  Q 196.19 154.35 219.02 161.49
  C 250.33 171.28 293.16 171.29 305.46 132.67
  A 0.93 0.92 21.0 0 0 304.96 131.56
  L 300.51 129.51"
/>
<path stroke="#5c7c3b" vector-effect="non-scaling-stroke" d="
  M 300.51 129.51
  C 265.05 113.71 225.29 116.29 191.39 134.45"
/>
<path stroke="#77a136" vector-effect="non-scaling-stroke" d="
  M 300.51 129.51
  Q 296.24 134.75 291.53 139.05
  C 263.66 164.45 218.13 158.52 191.39 134.45"
/>
<path stroke="#8e9c91" vector-effect="non-scaling-stroke" d="
  M 295.96 170.71
  Q 284.53 177.63 271.48 180.12
  C 267.93 180.80 259.98 181.16 259.97 186.00
  Q 259.95 204.30 259.93 221.87
  Q 259.93 223.68 261.49 222.76
  L 266.97 219.50
  A 3.63 3.62 -12.4 0 0 268.73 216.76
  Q 269.94 205.40 273.40 194.71
  C 276.71 184.51 291.50 185.77 288.93 198.01
  Q 287.68 203.99 286.33 209.69
  A 0.39 0.39 0.0 0 0 286.87 210.14
  Q 292.16 207.75 294.60 203.79"
/>
<path stroke="#5c7c3b" vector-effect="non-scaling-stroke" d="
  M 294.60 203.79
  Q 297.93 200.89 298.16 198.58"
/>
<path stroke="#40672e" vector-effect="non-scaling-stroke" d="
  M 298.16 198.58
  Q 299.97 197.10 302.60 193.83
  C 308.57 186.43 318.62 189.42 326.75 190.24
  C 339.22 191.52 346.70 184.69 355.64 177.59
  Q 356.53 176.89 355.95 175.92
  Q 352.15 169.49 347.18 163.97"
/>
<path stroke="#5c7c3b" vector-effect="non-scaling-stroke" d="
  M 347.18 163.97
  Q 335.51 150.38 320.77 141.08
  A 1.11 1.10 27.8 0 0 319.17 141.57
  Q 311.38 159.30 295.96 170.71"
/>
<path stroke="#77a136" vector-effect="non-scaling-stroke" d="
  M 347.18 163.97
  L 346.76 164.24
  A 0.87 0.80 85.6 0 0 346.42 164.67
  C 343.36 173.67 336.78 180.69 326.50 180.15
  Q 316.03 179.60 313.26 180.14
  Q 297.28 183.27 298.16 198.58"
/>
<path stroke="#c5d799" vector-effect="non-scaling-stroke" d="
  M 294.60 203.79
  Q 291.69 197.51 292.79 191.02
  Q 294.49 180.91 295.96 170.71"
/>
<path stroke="#5c7c3b" vector-effect="non-scaling-stroke" d="
  M 145.72 176.70
  L 139.07 187.83"
/>
<path stroke="#40672e" vector-effect="non-scaling-stroke" d="
  M 139.07 187.83
  L 135.95 193.90
  A 1.37 1.37 0.0 0 0 136.68 195.81
  Q 151.35 201.47 166.97 204.77
  C 180.35 207.60 188.29 209.31 197.70 215.55
  Q 202.25 218.57 208.48 224.75"
/>
<path stroke="#8e9c91" vector-effect="non-scaling-stroke" d="
  M 208.48 224.75
  Q 209.96 227.43 211.76 230.31
  C 215.49 236.27 218.33 245.20 223.95 249.57
  Q 233.00 256.63 241.61 263.99
  A 0.30 0.30 0.0 0 0 242.10 263.77
  Q 242.21 250.57 242.23 237.35
  C 242.24 230.93 241.26 227.98 235.79 224.95
  Q 232.36 223.04 225.70 218.13
  C 217.71 212.25 213.54 204.12 209.89 195.15
  C 208.23 191.09 209.27 187.12 213.24 185.00
  C 223.14 179.70 227.12 195.90 231.77 201.04
  C 234.64 204.23 237.83 206.59 241.26 209.33
  A 0.59 0.59 0.0 0 0 242.22 208.87
  Q 242.29 198.35 242.15 187.49
  Q 242.07 181.52 236.12 180.68
  C 229.69 179.77 223.34 178.97 217.06 177.22
  Q 203.21 173.35 189.48 169.07
  C 177.70 165.39 169.34 163.80 158.01 165.09
  C 152.40 165.73 148.76 171.78 145.72 176.70"
/>
<path stroke="#a9c28c" vector-effect="non-scaling-stroke" d="
  M 208.48 224.75
  Q 209.09 219.35 207.59 213.73
  Q 206.16 208.38 205.02 206.27"
/>
<path stroke="#c5d799" vector-effect="non-scaling-stroke" d="
  M 205.02 206.27
  C 200.97 188.92 185.31 178.32 168.46 176.39
  Q 157.66 175.15 145.72 176.70"
/>
<path stroke="#77a136" vector-effect="non-scaling-stroke" d="
  M 205.02 206.27
  Q 195.56 196.86 184.37 195.44
  Q 176.20 194.40 168.00 193.72
  Q 156.23 192.73 139.07 187.83"
/>
<path stroke="#5c7c3b" vector-effect="non-scaling-stroke" d="
  M 342.12 217.05
  Q 349.10 219.66 349.25 225.06
  C 349.36 228.60 347.46 230.71 344.36 232.13
  C 336.31 235.80 329.62 238.22 322.22 244.66"
/>
<path stroke="#40672e" vector-effect="non-scaling-stroke" d="
  M 322.22 244.66
  L 315.59 251.19
  A 0.76 0.76 0.0 0 0 315.89 252.45
  Q 319.50 253.64 323.18 254.91
  C 334.64 258.88 342.57 266.13 351.91 273.41
  Q 355.15 275.94 358.72 273.75
  C 368.08 268.01 373.12 255.29 374.70 244.98
  C 375.71 238.39 376.69 232.96 375.16 226.65"
/>
<path stroke="#5c7c3b" vector-effect="non-scaling-stroke" d="
  M 375.16 226.65
  Q 374.79 216.73 371.38 206.52"
/>
<path stroke="#8e9c91" vector-effect="non-scaling-stroke" d="
  M 371.38 206.52
  C 370.20 201.10 367.57 195.84 364.89 190.91
  A 0.63 0.63 0.0 0 0 363.94 190.72
  Q 357.88 195.65 350.94 199.69
  C 340.95 205.50 330.40 205.81 319.24 204.31
  Q 314.79 203.71 312.42 207.20
  C 305.48 217.41 296.96 223.10 285.91 227.86
  Q 277.11 231.65 268.63 236.10
  C 264.69 238.17 260.01 240.93 259.99 244.75
  Q 259.95 255.33 260.11 265.64
  A 0.50 0.50 0.0 0 0 260.94 266.00
  Q 271.08 257.09 282.82 251.65
  C 288.78 248.90 296.18 245.75 301.33 241.74
  C 308.60 236.09 315.59 230.18 323.09 224.84
  Q 331.44 218.92 342.12 217.05"
/>
<path stroke="#c5d799" vector-effect="non-scaling-stroke" d="
  M 371.38 206.52
  Q 355.92 209.57 342.12 217.05"
/>
<path stroke="#77a136" vector-effect="non-scaling-stroke" d="
  M 375.16 226.65
  Q 368.55 242.10 354.26 246.71
  C 344.03 250.01 332.32 248.86 322.22 244.66"
/>
<path stroke="#5c7c3b" vector-effect="non-scaling-stroke" d="
  M 127.27 225.58
  L 127.15 238.45"
/>
<path stroke="#40672e" vector-effect="non-scaling-stroke" d="
  M 127.15 238.45
  Q 127.72 248.54 131.64 256.62
  A 2.70 2.67 -3.9 0 0 133.23 257.99
  Q 136.57 259.07 140.50 258.78
  C 146.50 258.32 152.64 257.97 158.47 257.02
  Q 177.90 253.86 197.13 248.73"
/>
<path stroke="#8e9c91" vector-effect="non-scaling-stroke" d="
  M 197.13 248.73
  Q 199.43 248.78 201.82 247.88
  A 0.72 0.71 -21.4 0 0 202.23 246.95
  C 200.17 241.67 197.58 236.78 193.63 232.74
  C 184.10 223.00 173.86 220.15 160.40 218.10
  Q 154.75 217.23 148.69 215.88
  C 142.67 214.53 135.86 212.63 129.67 213.05
  Q 129.14 213.09 129.06 213.61
  L 127.27 225.58"
/>
<path stroke="#a9c28c" vector-effect="non-scaling-stroke" d="
  M 197.13 248.73
  Q 194.34 244.79 191.76 243.57"
/>
<path stroke="#c5d799" vector-effect="non-scaling-stroke" d="
  M 191.76 243.57
  Q 183.31 236.35 172.42 233.60
  Q 148.49 227.57 127.27 225.58"
/>
<path stroke="#77a136" vector-effect="non-scaling-stroke" d="
  M 191.76 243.57
  Q 176.67 245.85 162.25 245.51
  Q 144.37 245.09 127.15 238.45"
/>
<path stroke="#514b2d" vector-effect="non-scaling-stroke" d="
  M 272.67 398.90
  Q 249.57 408.46 224.86 412.28
  Q 224.73 412.30 224.68 412.37
  Q 224.59 412.48 224.74 412.71
  A 0.24 0.21 -8.3 0 0 224.89 412.81
  Q 260.99 418.25 296.28 409.10
  Q 309.23 405.74 321.15 399.67
  Q 331.36 394.48 334.05 392.82
  Q 352.48 381.45 369.87 363.87
  Q 370.88 362.85 373.09 359.64"
/>
<path stroke="#635a37" vector-effect="non-scaling-stroke" d="
  M 373.09 359.64
  Q 379.01 353.58 383.95 346.16
  Q 384.80 344.89 383.30 345.18
  C 366.73 348.45 350.79 355.90 336.11 364.40
  C 315.27 376.46 295.58 389.06 272.67 398.90"
/>
<path stroke="#8f6431" vector-effect="non-scaling-stroke" d="
  M 373.09 359.64
  Q 360.74 362.60 350.69 370.17
  Q 342.32 376.46 333.80 382.54
  C 321.27 391.48 303.01 400.97 287.75 400.19
  Q 280.56 399.82 273.40 399.88
  Q 272.87 399.88 272.70 399.38
  Q 272.64 399.17 272.67 398.90"
/>
</g>
<path fill="#f7f7ef" d="
  M 0.00 0.00
  L 500.00 0.00
  L 500.00 500.00
  L 0.00 500.00
  L 0.00 0.00
  Z
  M 438.47 252.07
  A 186.94 186.94 0.0 0 0 251.53 65.13
  A 186.94 186.94 0.0 0 0 64.59 252.07
  A 186.94 186.94 0.0 0 0 251.53 439.01
  A 186.94 186.94 0.0 0 0 438.47 252.07
  Z"
/>
<path fill="#254133" d="
  M 438.47 252.07
  A 186.94 186.94 0.0 0 1 251.53 439.01
  A 186.94 186.94 0.0 0 1 64.59 252.07
  A 186.94 186.94 0.0 0 1 251.53 65.13
  A 186.94 186.94 0.0 0 1 438.47 252.07
  Z
  M 108.33 330.39
  Q 113.31 340.99 123.05 345.62
  Q 135.37 353.03 146.74 355.81
  Q 190.22 366.47 232.64 349.18
  Q 235.24 348.12 238.23 344.00
  Q 240.15 342.15 240.77 339.00
  Q 241.52 335.21 241.91 329.98
  Q 242.23 310.12 242.21 290.75
  C 242.21 286.47 230.06 275.94 226.65 272.95
  C 221.00 268.02 216.15 262.51 208.24 263.47
  C 188.27 265.90 168.36 272.95 148.01 274.02
  Q 145.85 274.14 147.61 275.40
  C 158.03 282.85 173.77 284.54 185.96 281.83
  Q 191.25 280.65 196.51 279.30
  C 201.06 278.14 206.30 278.78 207.22 284.26
  Q 208.12 289.63 202.55 292.33
  C 184.56 301.04 164.01 300.52 146.05 292.26
  C 126.62 283.31 114.03 265.37 110.98 244.20
  Q 110.20 238.77 110.24 235.51
  C 110.67 203.93 124.53 174.16 145.63 151.12
  C 170.58 123.90 203.87 107.05 240.70 104.19
  C 280.05 101.14 316.93 114.13 346.56 140.43
  C 372.11 163.10 390.72 195.85 392.79 229.99
  C 395.68 277.67 351.54 310.00 306.98 295.53
  Q 301.99 293.91 298.84 291.42
  C 292.84 286.67 296.25 277.77 304.26 279.00
  Q 307.58 279.51 314.80 281.52
  Q 325.58 284.51 336.49 282.96
  A 0.44 0.44 0.0 0 0 336.75 282.23
  Q 330.59 275.52 322.55 271.70
  C 316.28 268.72 306.26 266.72 299.73 264.83
  C 292.66 262.78 288.95 265.25 282.30 269.23
  C 276.31 272.82 260.47 284.71 260.33 292.32
  Q 259.95 313.39 260.18 323.50
  Q 260.26 326.88 261.45 330.04
  C 262.54 335.71 266.50 342.83 273.00 342.73
  Q 289.32 342.47 305.07 342.65
  Q 306.16 342.66 305.35 343.39
  Q 302.31 346.09 299.03 348.51
  C 258.60 378.21 206.66 390.87 156.99 384.02
  Q 154.52 383.68 156.63 385.01
  Q 167.79 392.05 180.54 398.77
  C 182.92 400.02 185.29 400.78 187.75 400.70
  C 216.07 399.80 244.48 394.28 270.58 382.32
  Q 288.48 374.11 298.45 367.95
  C 319.89 354.70 342.39 340.56 366.57 332.96
  Q 370.22 331.81 373.98 330.41
  Q 379.67 329.46 385.92 329.27
  C 388.44 329.19 391.41 329.96 394.24 330.01
  A 0.84 0.84 0.0 0 0 395.00 329.56
  Q 409.60 302.06 412.66 270.98
  Q 413.33 264.09 413.77 257.17
  C 414.24 249.76 413.59 244.23 413.13 237.59
  C 410.41 198.41 391.89 161.49 364.43 134.46
  C 343.88 114.22 317.10 99.40 289.49 92.57
  Q 242.57 80.97 196.04 98.08
  C 173.77 106.26 151.68 120.04 135.14 137.52
  C 105.29 169.07 88.08 211.03 88.89 254.99
  Q 89.63 295.04 108.33 330.39
  Z
  M 191.39 134.45
  Q 181.43 140.18 172.49 147.38
  A 0.63 0.62 32.7 0 0 172.73 148.47
  Q 196.19 154.35 219.02 161.49
  C 250.33 171.28 293.16 171.29 305.46 132.67
  A 0.93 0.92 21.0 0 0 304.96 131.56
  L 300.51 129.51
  C 265.05 113.71 225.29 116.29 191.39 134.45
  Z
  M 295.96 170.71
  Q 284.53 177.63 271.48 180.12
  C 267.93 180.80 259.98 181.16 259.97 186.00
  Q 259.95 204.30 259.93 221.87
  Q 259.93 223.68 261.49 222.76
  L 266.97 219.50
  A 3.63 3.62 -12.4 0 0 268.73 216.76
  Q 269.94 205.40 273.40 194.71
  C 276.71 184.51 291.50 185.77 288.93 198.01
  Q 287.68 203.99 286.33 209.69
  A 0.39 0.39 0.0 0 0 286.87 210.14
  Q 292.16 207.75 294.60 203.79
  Q 297.93 200.89 298.16 198.58
  Q 299.97 197.10 302.60 193.83
  C 308.57 186.43 318.62 189.42 326.75 190.24
  C 339.22 191.52 346.70 184.69 355.64 177.59
  Q 356.53 176.89 355.95 175.92
  Q 352.15 169.49 347.18 163.97
  Q 335.51 150.38 320.77 141.08
  A 1.11 1.10 27.8 0 0 319.17 141.57
  Q 311.38 159.30 295.96 170.71
  Z
  M 145.72 176.70
  L 139.07 187.83
  L 135.95 193.90
  A 1.37 1.37 0.0 0 0 136.68 195.81
  Q 151.35 201.47 166.97 204.77
  C 180.35 207.60 188.29 209.31 197.70 215.55
  Q 202.25 218.57 208.48 224.75
  Q 209.96 227.43 211.76 230.31
  C 215.49 236.27 218.33 245.20 223.95 249.57
  Q 233.00 256.63 241.61 263.99
  A 0.30 0.30 0.0 0 0 242.10 263.77
  Q 242.21 250.57 242.23 237.35
  C 242.24 230.93 241.26 227.98 235.79 224.95
  Q 232.36 223.04 225.70 218.13
  C 217.71 212.25 213.54 204.12 209.89 195.15
  C 208.23 191.09 209.27 187.12 213.24 185.00
  C 223.14 179.70 227.12 195.90 231.77 201.04
  C 234.64 204.23 237.83 206.59 241.26 209.33
  A 0.59 0.59 0.0 0 0 242.22 208.87
  Q 242.29 198.35 242.15 187.49
  Q 242.07 181.52 236.12 180.68
  C 229.69 179.77 223.34 178.97 217.06 177.22
  Q 203.21 173.35 189.48 169.07
  C 177.70 165.39 169.34 163.80 158.01 165.09
  C 152.40 165.73 148.76 171.78 145.72 176.70
  Z
  M 342.12 217.05
  Q 349.10 219.66 349.25 225.06
  C 349.36 228.60 347.46 230.71 344.36 232.13
  C 336.31 235.80 329.62 238.22 322.22 244.66
  L 315.59 251.19
  A 0.76 0.76 0.0 0 0 315.89 252.45
  Q 319.50 253.64 323.18 254.91
  C 334.64 258.88 342.57 266.13 351.91 273.41
  Q 355.15 275.94 358.72 273.75
  C 368.08 268.01 373.12 255.29 374.70 244.98
  C 375.71 238.39 376.69 232.96 375.16 226.65
  Q 374.79 216.73 371.38 206.52
  C 370.20 201.10 367.57 195.84 364.89 190.91
  A 0.63 0.63 0.0 0 0 363.94 190.72
  Q 357.88 195.65 350.94 199.69
  C 340.95 205.50 330.40 205.81 319.24 204.31
  Q 314.79 203.71 312.42 207.20
  C 305.48 217.41 296.96 223.10 285.91 227.86
  Q 277.11 231.65 268.63 236.10
  C 264.69 238.17 260.01 240.93 259.99 244.75
  Q 259.95 255.33 260.11 265.64
  A 0.50 0.50 0.0 0 0 260.94 266.00
  Q 271.08 257.09 282.82 251.65
  C 288.78 248.90 296.18 245.75 301.33 241.74
  C 308.60 236.09 315.59 230.18 323.09 224.84
  Q 331.44 218.92 342.12 217.05
  Z
  M 127.27 225.58
  L 127.15 238.45
  Q 127.72 248.54 131.64 256.62
  A 2.70 2.67 -3.9 0 0 133.23 257.99
  Q 136.57 259.07 140.50 258.78
  C 146.50 258.32 152.64 257.97 158.47 257.02
  Q 177.90 253.86 197.13 248.73
  Q 199.43 248.78 201.82 247.88
  A 0.72 0.71 -21.4 0 0 202.23 246.95
  C 200.17 241.67 197.58 236.78 193.63 232.74
  C 184.10 223.00 173.86 220.15 160.40 218.10
  Q 154.75 217.23 148.69 215.88
  C 142.67 214.53 135.86 212.63 129.67 213.05
  Q 129.14 213.09 129.06 213.61
  L 127.27 225.58
  Z
  M 272.67 398.90
  Q 249.57 408.46 224.86 412.28
  Q 224.73 412.30 224.68 412.37
  Q 224.59 412.48 224.74 412.71
  A 0.24 0.21 -8.3 0 0 224.89 412.81
  Q 260.99 418.25 296.28 409.10
  Q 309.23 405.74 321.15 399.67
  Q 331.36 394.48 334.05 392.82
  Q 352.48 381.45 369.87 363.87
  Q 370.88 362.85 373.09 359.64
  Q 379.01 353.58 383.95 346.16
  Q 384.80 344.89 383.30 345.18
  C 366.73 348.45 350.79 355.90 336.11 364.40
  C 315.27 376.46 295.58 389.06 272.67 398.90
  Z"
/>
<path fill="#f7f7ef" d="
  M 373.98 330.41
  Q 371.77 329.99 369.00 330.00
  Q 335.68 330.13 261.45 330.04
  Q 260.26 326.88 260.18 323.50
  Q 259.95 313.39 260.33 292.32
  C 260.47 284.71 276.31 272.82 282.30 269.23
  C 288.95 265.25 292.66 262.78 299.73 264.83
  C 306.26 266.72 316.28 268.72 322.55 271.70
  Q 330.59 275.52 336.75 282.23
  A 0.44 0.44 0.0 0 1 336.49 282.96
  Q 325.58 284.51 314.80 281.52
  Q 307.58 279.51 304.26 279.00
  C 296.25 277.77 292.84 286.67 298.84 291.42
  Q 301.99 293.91 306.98 295.53
  C 351.54 310.00 395.68 277.67 392.79 229.99
  C 390.72 195.85 372.11 163.10 346.56 140.43
  C 316.93 114.13 280.05 101.14 240.70 104.19
  C 203.87 107.05 170.58 123.90 145.63 151.12
  C 124.53 174.16 110.67 203.93 110.24 235.51
  Q 110.20 238.77 110.98 244.20
  C 114.03 265.37 126.62 283.31 146.05 292.26
  C 164.01 300.52 184.56 301.04 202.55 292.33
  Q 208.12 289.63 207.22 284.26
  C 206.30 278.78 201.06 278.14 196.51 279.30
  Q 191.25 280.65 185.96 281.83
  C 173.77 284.54 158.03 282.85 147.61 275.40
  Q 145.85 274.14 148.01 274.02
  C 168.36 272.95 188.27 265.90 208.24 263.47
  C 216.15 262.51 221.00 268.02 226.65 272.95
  C 230.06 275.94 242.21 286.47 242.21 290.75
  Q 242.23 310.12 241.91 329.98
  L 108.33 330.39
  Q 89.63 295.04 88.89 254.99
  C 88.08 211.03 105.29 169.07 135.14 137.52
  C 151.68 120.04 173.77 106.26 196.04 98.08
  Q 242.57 80.97 289.49 92.57
  C 317.10 99.40 343.88 114.22 364.43 134.46
  C 391.89 161.49 410.41 198.41 413.13 237.59
  C 413.59 244.23 414.24 249.76 413.77 257.17
  Q 413.33 264.09 412.66 270.98
  Q 409.60 302.06 395.00 329.56
  A 0.84 0.84 0.0 0 1 394.24 330.01
  C 391.41 329.96 388.44 329.19 385.92 329.27
  Q 379.67 329.46 373.98 330.41
  Z"
/>
<path fill="#93b643" d="
  M 300.51 129.51
  Q 296.24 134.75 291.53 139.05
  C 263.66 164.45 218.13 158.52 191.39 134.45
  C 225.29 116.29 265.05 113.71 300.51 129.51
  Z"
/>
<path fill="#5b8c28" d="
  M 300.51 129.51
  L 304.96 131.56
  A 0.93 0.92 21.0 0 1 305.46 132.67
  C 293.16 171.29 250.33 171.28 219.02 161.49
  Q 196.19 154.35 172.73 148.47
  A 0.63 0.62 32.7 0 1 172.49 147.38
  Q 181.43 140.18 191.39 134.45
  C 218.13 158.52 263.66 164.45 291.53 139.05
  Q 296.24 134.75 300.51 129.51
  Z"
/>
<path fill="#93b643" d="
  M 347.18 163.97
  L 346.76 164.24
  A 0.87 0.80 85.6 0 0 346.42 164.67
  C 343.36 173.67 336.78 180.69 326.50 180.15
  Q 316.03 179.60 313.26 180.14
  Q 297.28 183.27 298.16 198.58
  Q 297.93 200.89 294.60 203.79
  Q 291.69 197.51 292.79 191.02
  Q 294.49 180.91 295.96 170.71
  Q 311.38 159.30 319.17 141.57
  A 1.11 1.10 27.8 0 1 320.77 141.08
  Q 335.51 150.38 347.18 163.97
  Z"
/>
<path fill="#5b8c28" d="
  M 347.18 163.97
  Q 352.15 169.49 355.95 175.92
  Q 356.53 176.89 355.64 177.59
  C 346.70 184.69 339.22 191.52 326.75 190.24
  C 318.62 189.42 308.57 186.43 302.60 193.83
  Q 299.97 197.10 298.16 198.58
  Q 297.28 183.27 313.26 180.14
  Q 316.03 179.60 326.50 180.15
  C 336.78 180.69 343.36 173.67 346.42 164.67
  A 0.87 0.80 85.6 0 1 346.76 164.24
  L 347.18 163.97
  Z"
/>
<path fill="#f7f7ef" d="
  M 208.48 224.75
  Q 209.09 219.35 207.59 213.73
  Q 206.16 208.38 205.02 206.27
  C 200.97 188.92 185.31 178.32 168.46 176.39
  Q 157.66 175.15 145.72 176.70
  C 148.76 171.78 152.40 165.73 158.01 165.09
  C 169.34 163.80 177.70 165.39 189.48 169.07
  Q 203.21 173.35 217.06 177.22
  C 223.34 178.97 229.69 179.77 236.12 180.68
  Q 242.07 181.52 242.15 187.49
  Q 242.29 198.35 242.22 208.87
  A 0.59 0.59 0.0 0 1 241.26 209.33
  C 237.83 206.59 234.64 204.23 231.77 201.04
  C 227.12 195.90 223.14 179.70 213.24 185.00
  C 209.27 187.12 208.23 191.09 209.89 195.15
  C 213.54 204.12 217.71 212.25 225.70 218.13
  Q 232.36 223.04 235.79 224.95
  C 241.26 227.98 242.24 230.93 242.23 237.35
  Q 242.21 250.57 242.10 263.77
  A 0.30 0.30 0.0 0 1 241.61 263.99
  Q 233.00 256.63 223.95 249.57
  C 218.33 245.20 215.49 236.27 211.76 230.31
  Q 209.96 227.43 208.48 224.75
  Z"
/>
<path fill="#f7f7ef" d="
  M 295.96 170.71
  Q 294.49 180.91 292.79 191.02
  Q 291.69 197.51 294.60 203.79
  Q 292.16 207.75 286.87 210.14
  A 0.39 0.39 0.0 0 1 286.33 209.69
  Q 287.68 203.99 288.93 198.01
  C 291.50 185.77 276.71 184.51 273.40 194.71
  Q 269.94 205.40 268.73 216.76
  A 3.63 3.62 -12.4 0 1 266.97 219.50
  L 261.49 222.76
  Q 259.93 223.68 259.93 221.87
  Q 259.95 204.30 259.97 186.00
  C 259.98 181.16 267.93 180.80 271.48 180.12
  Q 284.53 177.63 295.96 170.71
  Z"
/>
<path fill="#93b643" d="
  M 205.02 206.27
  Q 195.56 196.86 184.37 195.44
  Q 176.20 194.40 168.00 193.72
  Q 156.23 192.73 139.07 187.83
  L 145.72 176.70
  Q 157.66 175.15 168.46 176.39
  C 185.31 178.32 200.97 188.92 205.02 206.27
  Z"
/>
<path fill="#5b8c28" d="
  M 139.07 187.83
  Q 156.23 192.73 168.00 193.72
  Q 176.20 194.40 184.37 195.44
  Q 195.56 196.86 205.02 206.27
  Q 206.16 208.38 207.59 213.73
  Q 209.09 219.35 208.48 224.75
  Q 202.25 218.57 197.70 215.55
  C 188.29 209.31 180.35 207.60 166.97 204.77
  Q 151.35 201.47 136.68 195.81
  A 1.37 1.37 0.0 0 1 135.95 193.90
  L 139.07 187.83
  Z"
/>
<path fill="#f7f7ef" d="
  M 371.38 206.52
  Q 355.92 209.57 342.12 217.05
  Q 331.44 218.92 323.09 224.84
  C 315.59 230.18 308.60 236.09 301.33 241.74
  C 296.18 245.75 288.78 248.90 282.82 251.65
  Q 271.08 257.09 260.94 266.00
  A 0.50 0.50 0.0 0 1 260.11 265.64
  Q 259.95 255.33 259.99 244.75
  C 260.01 240.93 264.69 238.17 268.63 236.10
  Q 277.11 231.65 285.91 227.86
  C 296.96 223.10 305.48 217.41 312.42 207.20
  Q 314.79 203.71 319.24 204.31
  C 330.40 205.81 340.95 205.50 350.94 199.69
  Q 357.88 195.65 363.94 190.72
  A 0.63 0.63 0.0 0 1 364.89 190.91
  C 367.57 195.84 370.20 201.10 371.38 206.52
  Z"
/>
<path fill="#93b643" d="
  M 371.38 206.52
  Q 374.79 216.73 375.16 226.65
  Q 368.55 242.10 354.26 246.71
  C 344.03 250.01 332.32 248.86 322.22 244.66
  C 329.62 238.22 336.31 235.80 344.36 232.13
  C 347.46 230.71 349.36 228.60 349.25 225.06
  Q 349.10 219.66 342.12 217.05
  Q 355.92 209.57 371.38 206.52
  Z"
/>
<path fill="#f7f7ef" d="
  M 197.13 248.73
  Q 194.34 244.79 191.76 243.57
  Q 183.31 236.35 172.42 233.60
  Q 148.49 227.57 127.27 225.58
  L 129.06 213.61
  Q 129.14 213.09 129.67 213.05
  C 135.86 212.63 142.67 214.53 148.69 215.88
  Q 154.75 217.23 160.40 218.10
  C 173.86 220.15 184.10 223.00 193.63 232.74
  C 197.58 236.78 200.17 241.67 202.23 246.95
  A 0.72 0.71 -21.4 0 1 201.82 247.88
  Q 199.43 248.78 197.13 248.73
  Z"
/>
<path fill="#93b643" d="
  M 127.27 225.58
  Q 148.49 227.57 172.42 233.60
  Q 183.31 236.35 191.76 243.57
  Q 176.67 245.85 162.25 245.51
  Q 144.37 245.09 127.15 238.45
  L 127.27 225.58
  Z"
/>
<path fill="#5b8c28" d="
  M 375.16 226.65
  C 376.69 232.96 375.71 238.39 374.70 244.98
  C 373.12 255.29 368.08 268.01 358.72 273.75
  Q 355.15 275.94 351.91 273.41
  C 342.57 266.13 334.64 258.88 323.18 254.91
  Q 319.50 253.64 315.89 252.45
  A 0.76 0.76 0.0 0 1 315.59 251.19
  L 322.22 244.66
  C 332.32 248.86 344.03 250.01 354.26 246.71
  Q 368.55 242.10 375.16 226.65
  Z"
/>
<path fill="#5b8c28" d="
  M 127.15 238.45
  Q 144.37 245.09 162.25 245.51
  Q 176.67 245.85 191.76 243.57
  Q 194.34 244.79 197.13 248.73
  Q 177.90 253.86 158.47 257.02
  C 152.64 257.97 146.50 258.32 140.50 258.78
  Q 136.57 259.07 133.23 257.99
  A 2.70 2.67 -3.9 0 1 131.64 256.62
  Q 127.72 248.54 127.15 238.45
  Z"
/>
<path fill="#a0733a" d="
  M 241.91 329.98
  Q 241.52 335.21 240.77 339.00
  Q 240.15 342.15 238.23 344.00
  Q 227.70 343.60 225.00 343.98
  C 215.81 345.24 207.04 347.70 197.75 348.70
  Q 191.64 349.36 170.13 348.68
  Q 163.00 348.45 158.25 347.80
  Q 141.97 345.57 127.50 344.90
  Q 126.04 344.84 123.05 345.62
  Q 113.31 340.99 108.33 330.39
  L 241.91 329.98
  Z"
/>
<path fill="#a0733a" d="
  M 373.98 330.41
  Q 370.22 331.81 366.57 332.96
  C 342.39 340.56 319.89 354.70 298.45 367.95
  Q 288.48 374.11 270.58 382.32
  C 244.48 394.28 216.07 399.80 187.75 400.70
  C 185.29 400.78 182.92 400.02 180.54 398.77
  Q 167.79 392.05 156.63 385.01
  Q 154.52 383.68 156.99 384.02
  C 206.66 390.87 258.60 378.21 299.03 348.51
  Q 302.31 346.09 305.35 343.39
  Q 306.16 342.66 305.07 342.65
  Q 289.32 342.47 273.00 342.73
  C 266.50 342.83 262.54 335.71 261.45 330.04
  Q 335.68 330.13 369.00 330.00
  Q 371.77 329.99 373.98 330.41
  Z"
/>
<path fill="#7d5527" d="
  M 238.23 344.00
  Q 235.24 348.12 232.64 349.18
  Q 190.22 366.47 146.74 355.81
  Q 135.37 353.03 123.05 345.62
  Q 126.04 344.84 127.50 344.90
  Q 141.97 345.57 158.25 347.80
  Q 163.00 348.45 170.13 348.68
  Q 191.64 349.36 197.75 348.70
  C 207.04 347.70 215.81 345.24 225.00 343.98
  Q 227.70 343.60 238.23 344.00
  Z"
/>
<path fill="#a0733a" d="
  M 373.09 359.64
  Q 360.74 362.60 350.69 370.17
  Q 342.32 376.46 333.80 382.54
  C 321.27 391.48 303.01 400.97 287.75 400.19
  Q 280.56 399.82 273.40 399.88
  Q 272.87 399.88 272.70 399.38
  Q 272.64 399.17 272.67 398.90
  C 295.58 389.06 315.27 376.46 336.11 364.40
  C 350.79 355.90 366.73 348.45 383.30 345.18
  Q 384.80 344.89 383.95 346.16
  Q 379.01 353.58 373.09 359.64
  Z"
/>
<path fill="#7d5527" d="
  M 373.09 359.64
  Q 370.88 362.85 369.87 363.87
  Q 352.48 381.45 334.05 392.82
  Q 331.36 394.48 321.15 399.67
  Q 309.23 405.74 296.28 409.10
  Q 260.99 418.25 224.89 412.81
  A 0.24 0.21 -8.3 0 1 224.74 412.71
  Q 224.59 412.48 224.68 412.37
  Q 224.73 412.30 224.86 412.28
  Q 249.57 408.46 272.67 398.90
  Q 272.64 399.17 272.70 399.38
  Q 272.87 399.88 273.40 399.88
  Q 280.56 399.82 287.75 400.19
  C 303.01 400.97 321.27 391.48 333.80 382.54
  Q 342.32 376.46 350.69 370.17
  Q 360.74 362.60 373.09 359.64
  Z"
/>
</svg>
