<svg width="24" height="24" viewBox="0 0 24 24" fill="none" xmlns="http://www.w3.org/2000/svg">
<path d="M12.0001 1.71423C9.96575 1.71423 7.97711 2.31748 6.28564 3.44769C4.59416 4.5779 3.27581 6.18431 2.49731 8.06377C1.71881 9.94324 1.51512 12.0114 1.912 14.0066C2.30887 16.0018 3.28849 17.8346 4.72698 19.273C6.16546 20.7115 7.9982 21.6911 9.99343 22.088C11.9887 22.4849 14.0568 22.2812 15.9362 21.5027C17.8157 20.7242 19.4221 19.4059 20.5523 17.7144C21.6825 16.0229 22.2858 14.0343 22.2858 11.9999C22.2828 9.27291 21.1982 6.65841 19.2699 4.73011C17.3416 2.8018 14.7271 1.71718 12.0001 1.71423V1.71423ZM12.0001 16.2857C11.1524 16.2857 10.3238 16.0343 9.61906 15.5634C8.91428 15.0925 8.36497 14.4231 8.04059 13.64C7.71621 12.8569 7.63134 11.9952 7.79671 11.1638C7.96207 10.3325 8.37025 9.56886 8.96962 8.96949C9.56898 8.37012 10.3326 7.96195 11.164 7.79658C11.9953 7.63122 12.857 7.71609 13.6401 8.04046C14.4233 8.36484 15.0926 8.91415 15.5635 9.61893C16.0344 10.3237 16.2858 11.1523 16.2858 11.9999C16.2844 13.1362 15.8325 14.2255 15.029 15.0289C14.2256 15.8323 13.1363 16.2843 12.0001 16.2857Z" fill="#444444"/>
</svg>
