<svg width="40" height="36" viewBox="0 0 40 36" fill="none" xmlns="http://www.w3.org/2000/svg">
    <path
        d="M19.8573 28.1429C24.5912 28.1429 28.4288 24.3053 28.4288 19.5714C28.4288 14.8376 24.5912 11 19.8573 11C15.1235 11 11.2859 14.8376 11.2859 19.5714C11.2859 24.3053 15.1235 28.1429 19.8573 28.1429Z"
        stroke="#444444" stroke-miterlimit="10" stroke-linecap="square" />
    <path
        d="M35.2857 35.0006H4.42857C3.51926 35.0006 2.64719 34.6393 2.00421 33.9964C1.36122 33.3534 1 32.4813 1 31.572V9.28627C1 8.37696 1.36122 7.50489 2.00421 6.86191C2.64719 6.21892 3.51926 5.8577 4.42857 5.8577H11.2857L14.7143 0.714844H25L28.4286 5.8577H35.2857C36.195 5.8577 37.0671 6.21892 37.7101 6.86191C38.3531 7.50489 38.7143 8.37696 38.7143 9.28627V31.572C38.7143 32.4813 38.3531 33.3534 37.7101 33.9964C37.0671 34.6393 36.195 35.0006 35.2857 35.0006Z"
        stroke="#444444" stroke-miterlimit="10" stroke-linecap="square" />
    <path
        d="M6.14294 12.7157C7.08971 12.7157 7.85722 11.9482 7.85722 11.0014C7.85722 10.0546 7.08971 9.28711 6.14294 9.28711C5.19616 9.28711 4.42865 10.0546 4.42865 11.0014C4.42865 11.9482 5.19616 12.7157 6.14294 12.7157Z"
        fill="#444444" />
</svg>
