<svg width="24" height="24" viewBox="0 0 24 24" fill="none" xmlns="http://www.w3.org/2000/svg">
<path fill-rule="evenodd" clip-rule="evenodd" d="M21.1378 15.3997C20.2881 17.6835 18.614 19.5664 16.4453 20.6775C14.2766 21.7886 11.7704 22.0473 9.42043 21.4027C7.38533 20.8444 5.59516 19.6438 4.30874 17.9927L5.49197 17.0708C6.58048 18.4678 8.09525 19.4838 9.81723 19.9561C11.8057 20.5016 13.9263 20.2826 15.7614 19.3425C17.5964 18.4023 19.013 16.8091 19.7319 14.8766C20.4508 12.9441 20.4201 10.8125 19.6457 8.90154C18.8713 6.9906 17.4094 5.43889 15.548 4.55207C13.6866 3.66525 11.5605 3.5076 9.58865 4.11017C7.61677 4.71274 5.94201 6.03186 4.89424 7.80769C4.31215 8.79425 3.94701 9.88204 3.81048 11H5.79979C5.8822 11 5.92923 11.0941 5.87979 11.16L3.07979 14.8933C3.03979 14.9467 2.95979 14.9467 2.91979 14.8933L0.119791 11.16C0.0703482 11.0941 0.117387 11 0.199791 11H2.30107C2.44389 9.61501 2.8829 8.26481 3.60234 7.04545C4.84062 4.94674 6.81988 3.38778 9.15028 2.67565C11.4807 1.96352 13.9933 2.14984 16.1931 3.1979C18.393 4.24596 20.1207 6.07979 21.0359 8.33819C21.9511 10.5966 21.9874 13.1158 21.1378 15.3997ZM18 12C18 15.3137 15.3137 18 12 18C8.68629 18 6 15.3137 6 12C6 8.68631 8.68629 6.00002 12 6.00002C15.3137 6.00002 18 8.68631 18 12ZM12 7.25002C12.4142 7.25002 12.75 7.5858 12.75 8.00002V11.5669L15.8392 13.3505C16.1979 13.5576 16.3209 14.0163 16.1137 14.375C15.9066 14.7337 15.4479 14.8566 15.0892 14.6495L11.6401 12.6582C11.5368 12.6016 11.4483 12.5214 11.3819 12.4249C11.2987 12.3041 11.25 12.1577 11.25 12V11.9993V8.00002C11.25 7.5858 11.5858 7.25002 12 7.25002Z" fill="#F87147"/>
</svg>
