<svg width="24" height="24" viewBox="0 0 24 24" fill="none" xmlns="http://www.w3.org/2000/svg">
<path d="M12.0002 13.7137C12.9469 13.7137 13.7145 12.9462 13.7145 11.9994C13.7145 11.0527 12.9469 10.2852 12.0002 10.2852C11.0534 10.2852 10.2859 11.0527 10.2859 11.9994C10.2859 12.9462 11.0534 13.7137 12.0002 13.7137Z" fill="#444444"/>
<path d="M4.28582 13.7137C5.23259 13.7137 6.0001 12.9462 6.0001 11.9994C6.0001 11.0527 5.23259 10.2852 4.28582 10.2852C3.33905 10.2852 2.57153 11.0527 2.57153 11.9994C2.57153 12.9462 3.33905 13.7137 4.28582 13.7137Z" fill="#444444"/>
<path d="M19.7143 13.7137C20.6611 13.7137 21.4286 12.9462 21.4286 11.9994C21.4286 11.0527 20.6611 10.2852 19.7143 10.2852C18.7675 10.2852 18 11.0527 18 11.9994C18 12.9462 18.7675 13.7137 19.7143 13.7137Z" fill="#444444"/>
</svg>
