<svg width="24" height="24" viewBox="0 0 24 24" fill="none" xmlns="http://www.w3.org/2000/svg">
<path fill-rule="evenodd" clip-rule="evenodd" d="M16.4453 20.6775C18.614 19.5664 20.2881 17.6835 21.1378 15.3997C21.9874 13.1158 21.9511 10.5966 21.0359 8.33819C20.1207 6.07979 18.393 4.24596 16.1931 3.1979C13.9933 2.14984 11.4807 1.96352 9.15028 2.67565C6.81988 3.38778 4.84062 4.94674 3.60234 7.04545C2.8829 8.26481 2.44389 9.61501 2.30107 11H0.199791C0.117387 11 0.0703482 11.0941 0.119791 11.16L2.91979 14.8933C2.95979 14.9467 3.03979 14.9467 3.07979 14.8933L5.87979 11.16C5.92923 11.0941 5.8822 11 5.79979 11H3.81048C3.94701 9.88204 4.31215 8.79425 4.89424 7.80769C5.94201 6.03186 7.61677 4.71274 9.58865 4.11017C11.5605 3.5076 13.6866 3.66525 15.548 4.55207C17.4094 5.43889 18.8713 6.9906 19.6457 8.90154C20.4201 10.8125 20.4508 12.9441 19.7319 14.8766C19.013 16.8091 17.5964 18.4023 15.7614 19.3425C13.9263 20.2826 11.8057 20.5016 9.81723 19.9561C8.09525 19.4838 6.58048 18.4678 5.49197 17.0708L4.30874 17.9927C5.59516 19.6438 7.38533 20.8444 9.42043 21.4027C11.7704 22.0473 14.2766 21.7886 16.4453 20.6775ZM12 6.75001C12.4142 6.75001 12.75 7.08579 12.75 7.50001V11.5669L16.2722 13.6005C16.631 13.8076 16.7539 14.2663 16.5468 14.625C16.3397 14.9837 15.881 15.1066 15.5222 14.8995L11.6401 12.6582C11.5368 12.6016 11.4483 12.5214 11.3819 12.4249C11.2987 12.3041 11.25 12.1577 11.25 12V11.9995C11.25 11.9994 11.25 11.9993 11.25 11.9991V7.50001C11.25 7.08579 11.5858 6.75001 12 6.75001Z" fill="#757575"/>
</svg>
