<svg width="24" height="24" viewBox="0 0 24 24" fill="none" xmlns="http://www.w3.org/2000/svg">
    <path
        d="M21.0586 4.86625C20.5494 4.29542 19.9282 3.83534 19.2337 3.51456C18.5393 3.19378 17.7863 3.01915 17.0215 3.0015C16.259 2.98547 15.501 3.1229 14.7926 3.40563C14.0842 3.68835 13.4399 4.11059 12.898 4.64725L12 5.5452L11.2969 4.84281C9.10989 2.6536 5.55032 2.46976 3.3677 4.43998C2.79881 4.95028 2.33992 5.5712 2.01906 6.26481C1.6982 6.95843 1.52211 7.71017 1.50155 8.47412C1.48098 9.23808 1.61638 9.9982 1.89946 10.7081C2.18253 11.4179 2.60736 12.0627 3.14797 12.6028L10.9395 20.3943C11.2209 20.6753 11.6024 20.833 12 20.833C12.3977 20.833 12.7791 20.6753 13.0606 20.3943L20.6573 12.7976C22.8457 10.6084 23.0259 7.05033 21.0586 4.86625Z"
        fill="#444444" />
</svg>
