<svg width="24" height="24" viewBox="0 0 24 24" fill="none" xmlns="http://www.w3.org/2000/svg">
<path d="M17.5714 3L10.5137 10.0577C10.0294 9.93086 9.52371 9.85714 9 9.85714C5.68629 9.85714 3 12.5434 3 15.8571C3 19.1709 5.68629 21.8571 9 21.8571C12.3137 21.8571 15 19.1709 15 15.8571C15 15.0934 14.8517 14.3657 14.592 13.6937L16.7143 11.5714V9H19.2857L21.8571 6.42857V3H17.5714Z" stroke="#444444" stroke-miterlimit="10" stroke-linecap="square"/>
<path d="M9.00001 17.5711C9.94678 17.5711 10.7143 16.8036 10.7143 15.8569C10.7143 14.9101 9.94678 14.1426 9.00001 14.1426C8.05323 14.1426 7.28572 14.9101 7.28572 15.8569C7.28572 16.8036 8.05323 17.5711 9.00001 17.5711Z" stroke="#444444" stroke-miterlimit="10" stroke-linecap="square"/>
</svg>
