<?xml version="1.0" encoding="UTF-8" standalone="no"?>
<!DOCTYPE svg PUBLIC "-//W3C//DTD SVG 1.1//EN" "http://www.w3.org/Graphics/SVG/1.1/DTD/svg11.dtd">
<svg xmlns="http://www.w3.org/2000/svg" version="1.1" viewBox="0.00 0.00 512.00 512.00">
<g stroke-width="2.00" fill="none" stroke-linecap="butt">
<path stroke="#dd1b13" vector-effect="non-scaling-stroke" d="
  M 256.08 0.00
  L 256.05 89.99"
/>
<path stroke="#dd1b13" vector-effect="non-scaling-stroke" d="
  M 256.02 180.02
  L 255.73 389.96"
/>
<path stroke="#a6804d" vector-effect="non-scaling-stroke" d="
  M 255.73 389.96
  Q 249.16 389.80 245.17 385.33
  Q 237.49 376.71 225.78 361.76"
/>
<path stroke="#f6882c" vector-effect="non-scaling-stroke" d="
  M 225.78 361.76
  L 206.96 337.51"
/>
<path stroke="#7e713c" vector-effect="non-scaling-stroke" d="
  M 206.96 337.51
  L 206.87 337.05
  Q 206.79 336.67 206.57 336.35
  L 182.79 302.02"
/>
<path stroke="#e7958a" vector-effect="non-scaling-stroke" d="
  M 182.79 302.02
  L 164.38 271.99"
/>
<path stroke="#c46e87" vector-effect="non-scaling-stroke" d="
  M 347.88 272.00
  L 329.52 301.93"
/>
<path stroke="#e45f1d" vector-effect="non-scaling-stroke" d="
  M 329.52 301.93
  L 322.72 312.20"
/>
<path stroke="#6d5639" vector-effect="non-scaling-stroke" d="
  M 322.72 312.20
  Q 297.37 349.77 267.93 384.43
  Q 263.41 389.76 256.47 390.07"
/>
<path stroke="#94654a" vector-effect="non-scaling-stroke" d="
  M 256.47 390.07
  L 255.73 389.96"
/>
<path stroke="#77d0b0" vector-effect="non-scaling-stroke" d="
  M 182.79 302.02
  L 116.38 302.12
  Q 115.87 302.12 115.68 302.58
  L 70.76 407.34"
/>
<path stroke="#efe7a0" vector-effect="non-scaling-stroke" d="
  M 70.76 407.34
  L 52.32 450.46"
/>
<path stroke="#7bc8f0" vector-effect="non-scaling-stroke" d="
  M 52.32 450.46
  L 39.02 481.49
  A 0.37 0.37 0.0 0 0 39.36 482.00
  L 219.77 481.97"
/>
<path stroke="#efe7a0" vector-effect="non-scaling-stroke" d="
  M 219.77 481.97
  L 256.12 481.99"
/>
<path stroke="#cee8fe" vector-effect="non-scaling-stroke" d="
  M 256.12 481.99
  L 256.12 512.00"
/>
<path stroke="#dccd94" vector-effect="non-scaling-stroke" d="
  M 256.12 481.99
  L 261.71 481.69"
/>
<path stroke="#65c4b0" vector-effect="non-scaling-stroke" d="
  M 261.71 481.69
  Q 276.04 482.34 291.00 481.93
  Q 292.99 481.88 294.17 481.73"
/>
<path stroke="#dccd94" vector-effect="non-scaling-stroke" d="
  M 294.17 481.73
  L 359.11 481.88"
/>
<path stroke="#69bcf0" vector-effect="non-scaling-stroke" d="
  M 359.11 481.88
  L 472.80 482.00
  A 0.27 0.27 0.0 0 0 473.05 481.62
  L 452.45 433.47"
/>
<path stroke="#dccd94" vector-effect="non-scaling-stroke" d="
  M 452.45 433.47
  L 440.71 405.79"
/>
<path stroke="#65c4b0" vector-effect="non-scaling-stroke" d="
  M 440.71 405.79
  L 396.48 302.60
  Q 396.28 302.14 395.78 302.13
  Q 363.04 301.79 343.05 302.06
  Q 342.11 302.07 341.37 302.66"
/>
<path stroke="#dccd94" vector-effect="non-scaling-stroke" d="
  M 341.37 302.66
  Q 340.18 302.01 339.75 302.02
  Q 334.83 302.06 329.52 301.93"
/>
<path stroke="#85b545" vector-effect="non-scaling-stroke" d="
  M 341.37 302.66
  L 322.72 312.20"
/>
<path stroke="#86c251" vector-effect="non-scaling-stroke" d="
  M 206.96 337.51
  L 70.76 407.34"
/>
<path stroke="#85b545" vector-effect="non-scaling-stroke" d="
  M 440.71 405.79
  L 294.17 481.73"
/>
<path stroke="#85b545" vector-effect="non-scaling-stroke" d="
  M 261.71 481.69
  L 256.76 476.50"
/>
<path stroke="#86c251" vector-effect="non-scaling-stroke" d="
  M 256.76 476.50
  Q 255.87 475.50 255.96 475.25"
/>
<path stroke="#36ba72" vector-effect="non-scaling-stroke" d="
  M 255.96 475.25
  L 256.00 392.05
  Q 256.00 391.56 256.20 391.11
  Q 256.43 390.60 256.47 390.07"
/>
<path stroke="#aed162" vector-effect="non-scaling-stroke" d="
  M 225.78 361.76
  L 171.01 389.82
  Q 170.38 390.15 170.88 390.64
  L 255.96 475.25"
/>
<path stroke="#fdcc35" vector-effect="non-scaling-stroke" d="
  M 256.76 476.50
  L 256.41 477.08
  Q 256.16 477.48 256.26 477.94
  Q 256.65 479.94 256.12 481.99"
/>
<path stroke="#8aba91" vector-effect="non-scaling-stroke" d="
  M 219.77 481.97
  L 142.57 404.75
  A 0.56 0.55 53.2 0 0 141.93 404.65
  L 52.32 450.46"
/>
<path stroke="#89ad85" vector-effect="non-scaling-stroke" d="
  M 452.45 433.47
  L 359.11 481.88"
/>
</g>
<path fill="#ee3616" d="
  M 250.88 0.00
  L 256.08 0.00
  L 256.05 89.99
  Q 243.62 90.04 233.49 96.03
  C 208.25 110.97 203.16 145.43 223.95 166.55
  Q 236.89 179.71 256.02 180.02
  L 255.73 389.96
  Q 249.16 389.80 245.17 385.33
  Q 237.49 376.71 225.78 361.76
  L 206.96 337.51
  L 206.87 337.05
  Q 206.79 336.67 206.57 336.35
  L 182.79 302.02
  L 164.38 271.99
  Q 147.91 243.91 135.93 213.90
  C 126.24 189.60 120.04 164.65 121.19 138.76
  C 123.08 96.39 138.28 56.35 170.82 29.65
  Q 199.81 5.86 238.13 1.13
  Q 242.83 0.55 250.88 0.00
  Z"
/>
<path fill="#cb0010" d="
  M 256.08 0.00
  L 265.75 0.00
  Q 277.69 1.40 281.25 2.09
  Q 328.05 11.19 357.80 46.68
  C 372.29 63.97 381.95 85.02 386.89 107.16
  Q 391.07 125.90 391.09 145.87
  Q 391.10 156.51 389.67 165.93
  Q 387.10 182.81 381.56 199.26
  C 372.99 224.68 361.27 248.79 347.88 272.00
  L 329.52 301.93
  L 322.72 312.20
  Q 297.37 349.77 267.93 384.43
  Q 263.41 389.76 256.47 390.07
  L 255.73 389.96
  L 256.02 180.02
  Q 280.99 178.59 293.60 159.31
  Q 297.23 153.76 298.98 147.67
  Q 301.17 140.03 300.85 133.56
  Q 299.92 115.02 286.56 102.18
  Q 278.25 94.20 266.00 91.26
  Q 262.98 90.54 256.05 89.99
  L 256.08 0.00
  Z"
/>
<path fill="#e0f4fe" d="
  M 164.38 271.99
  L 182.79 302.02
  L 116.38 302.12
  Q 115.87 302.12 115.68 302.58
  L 70.76 407.34
  L 52.32 450.46
  L 39.02 481.49
  A 0.37 0.37 0.0 0 0 39.36 482.00
  L 219.77 481.97
  L 256.12 481.99
  L 256.12 512.00
  L 14.26 512.00
  Q 5.33 510.36 2.07 502.51
  C -0.02 497.49 1.22 493.51 3.50 488.18
  Q 47.85 384.72 92.19 281.25
  Q 94.63 275.56 99.92 273.31
  Q 102.97 272.02 110.27 272.01
  Q 137.17 271.99 164.38 271.99
  Z"
/>
<path fill="#bcdcfe" d="
  M 347.88 272.00
  Q 375.84 271.99 403.56 272.01
  Q 409.73 272.01 412.73 273.41
  Q 417.64 275.71 419.87 280.91
  Q 462.45 380.23 507.85 486.16
  C 509.16 489.23 510.89 492.53 511.01 495.78
  Q 511.46 508.20 498.87 512.00
  L 256.12 512.00
  L 256.12 481.99
  L 261.71 481.69
  Q 276.04 482.34 291.00 481.93
  Q 292.99 481.88 294.17 481.73
  L 359.11 481.88
  L 472.80 482.00
  A 0.27 0.27 0.0 0 0 473.05 481.62
  L 452.45 433.47
  L 440.71 405.79
  L 396.48 302.60
  Q 396.28 302.14 395.78 302.13
  Q 363.04 301.79 343.05 302.06
  Q 342.11 302.07 341.37 302.66
  Q 340.18 302.01 339.75 302.02
  Q 334.83 302.06 329.52 301.93
  L 347.88 272.00
  Z"
/>
<path fill="#fcbe29" d="
  M 329.52 301.93
  Q 334.83 302.06 339.75 302.02
  Q 340.18 302.01 341.37 302.66
  L 322.72 312.20
  L 329.52 301.93
  Z"
/>
<path fill="#0eab61" d="
  M 182.79 302.02
  L 206.57 336.35
  Q 206.79 336.67 206.87 337.05
  L 206.96 337.51
  L 70.76 407.34
  L 115.68 302.58
  Q 115.87 302.12 116.38 302.12
  L 182.79 302.02
  Z"
/>
<path fill="#0eab61" d="
  M 440.71 405.79
  L 294.17 481.73
  Q 292.99 481.88 291.00 481.93
  Q 276.04 482.34 261.71 481.69
  L 256.76 476.50
  Q 255.87 475.50 255.96 475.25
  L 256.00 392.05
  Q 256.00 391.56 256.20 391.11
  Q 256.43 390.60 256.47 390.07
  Q 263.41 389.76 267.93 384.43
  Q 297.37 349.77 322.72 312.20
  L 341.37 302.66
  Q 342.11 302.07 343.05 302.06
  Q 363.04 301.79 395.78 302.13
  Q 396.28 302.14 396.48 302.60
  L 440.71 405.79
  Z"
/>
<path fill="#fed941" d="
  M 206.96 337.51
  L 225.78 361.76
  L 171.01 389.82
  Q 170.38 390.15 170.88 390.64
  L 255.96 475.25
  Q 255.87 475.50 256.76 476.50
  L 256.41 477.08
  Q 256.16 477.48 256.26 477.94
  Q 256.65 479.94 256.12 481.99
  L 219.77 481.97
  L 142.57 404.75
  A 0.56 0.55 53.2 0 0 141.93 404.65
  L 52.32 450.46
  L 70.76 407.34
  L 206.96 337.51
  Z"
/>
<path fill="#5dc983" d="
  M 225.78 361.76
  Q 237.49 376.71 245.17 385.33
  Q 249.16 389.80 255.73 389.96
  L 256.47 390.07
  Q 256.43 390.60 256.20 391.11
  Q 256.00 391.56 256.00 392.05
  L 255.96 475.25
  L 170.88 390.64
  Q 170.38 390.15 171.01 389.82
  L 225.78 361.76
  Z"
/>
<path fill="#159be1" d="
  M 219.77 481.97
  L 39.36 482.00
  A 0.37 0.37 0.0 0 1 39.02 481.49
  L 52.32 450.46
  L 141.93 404.65
  A 0.56 0.55 53.2 0 1 142.57 404.75
  L 219.77 481.97
  Z"
/>
<path fill="#fcbe29" d="
  M 440.71 405.79
  L 452.45 433.47
  L 359.11 481.88
  L 294.17 481.73
  L 440.71 405.79
  Z"
/>
<path fill="#159be1" d="
  M 452.45 433.47
  L 473.05 481.62
  A 0.27 0.27 0.0 0 1 472.80 482.00
  L 359.11 481.88
  L 452.45 433.47
  Z"
/>
<path fill="#fcbe29" d="
  M 256.76 476.50
  L 261.71 481.69
  L 256.12 481.99
  Q 256.65 479.94 256.26 477.94
  Q 256.16 477.48 256.41 477.08
  L 256.76 476.50
  Z"
/>
</svg>
