<?xml version="1.0" encoding="UTF-8" standalone="no"?>
<!DOCTYPE svg PUBLIC "-//W3C//DTD SVG 1.1//EN" "http://www.w3.org/Graphics/SVG/1.1/DTD/svg11.dtd">
<svg xmlns="http://www.w3.org/2000/svg" version="1.1" viewBox="0.00 0.00 512.00 512.00">
<path fill="#757575" d="
  M 249.79 0.00
  L 260.47 0.00
  Q 303.24 1.95 336.61 26.58
  C 371.94 52.67 388.88 93.85 391.24 137.10
  C 392.73 164.47 386.57 189.81 376.33 215.55
  Q 365.45 242.87 349.48 270.44
  Q 349.15 271.01 349.81 271.01
  Q 378.42 271.12 398.14 270.96
  Q 407.82 270.88 410.61 271.64
  Q 417.55 273.52 420.73 280.94
  Q 465.85 386.20 510.87 491.29
  C 511.43 492.59 511.62 493.98 512.00 495.33
  L 512.00 498.74
  Q 509.75 509.89 498.63 512.00
  L 13.22 512.00
  Q 2.14 509.75 0.00 498.65
  L 0.00 495.17
  Q 0.45 493.31 1.20 491.56
  Q 49.45 378.48 91.33 280.78
  Q 95.48 271.09 106.58 271.07
  Q 130.28 271.03 162.14 271.08
  Q 162.88 271.08 162.51 270.44
  C 146.84 243.27 133.10 213.97 125.59 184.75
  C 123.11 175.09 121.27 164.87 120.79 154.98
  C 118.28 103.48 136.69 50.97 180.98 22.03
  Q 211.88 1.85 249.79 0.00
  Z
  M 342.23 219.37
  C 352.66 196.54 361.14 172.20 361.34 147.76
  C 361.55 122.28 355.67 96.28 341.61 75.34
  C 317.16 38.91 273.68 23.46 231.17 33.04
  Q 200.66 39.91 179.49 62.79
  C 158.57 85.41 150.41 117.34 150.64 147.79
  Q 150.76 163.51 155.48 180.62
  Q 162.31 205.37 175.80 231.92
  C 197.40 274.45 225.72 315.31 255.81 352.54
  Q 256.00 352.78 256.19 352.54
  Q 280.50 322.47 301.65 290.63
  Q 327.33 251.98 342.23 219.37
  Z
  M 115.55 301.22
  A 0.31 0.31 0.0 0 0 115.27 301.41
  L 70.32 406.27
  A 0.31 0.31 0.0 0 0 70.74 406.67
  L 205.65 337.63
  A 0.31 0.31 0.0 0 0 205.76 337.18
  L 180.99 301.35
  A 0.31 0.31 0.0 0 0 180.74 301.22
  L 115.55 301.22
  Z
  M 224.20 361.97
  L 170.45 389.46
  A 0.37 0.34 53.0 0 0 170.40 390.03
  L 261.84 481.47
  Q 262.24 481.86 262.80 481.86
  L 293.17 481.86
  Q 293.79 481.86 294.33 481.58
  L 440.91 405.41
  A 0.39 0.39 0.0 0 0 441.09 404.90
  L 396.83 301.62
  Q 396.65 301.22 396.22 301.22
  L 331.27 301.22
  Q 330.74 301.22 330.46 301.66
  Q 303.45 343.33 268.56 385.06
  C 263.62 390.98 256.58 393.41 249.40 390.01
  Q 246.34 388.56 242.51 383.96
  Q 232.80 372.28 224.84 362.11
  A 0.52 0.52 0.0 0 0 224.20 361.97
  Z
  M 218.88 481.86
  A 0.32 0.32 0.0 0 0 219.10 481.31
  L 142.05 404.26
  A 0.32 0.32 0.0 0 0 141.68 404.21
  L 51.51 450.35
  A 0.32 0.32 0.0 0 0 51.36 450.51
  L 38.10 481.41
  A 0.32 0.32 0.0 0 0 38.40 481.86
  L 218.88 481.86
  Z
  M 452.74 433.20
  L 360.07 481.33
  Q 359.05 481.86 360.20 481.86
  L 473.72 481.86
  A 0.25 0.25 0.0 0 0 473.95 481.52
  L 453.35 433.48
  Q 453.14 432.99 452.74 433.20
  Z"
/>
<path fill="#757575" d="
  M 301.13 135.58
  A 45.13 45.13 0.0 0 1 256.00 180.71
  A 45.13 45.13 0.0 0 1 210.87 135.58
  A 45.13 45.13 0.0 0 1 256.00 90.45
  A 45.13 45.13 0.0 0 1 301.13 135.58
  Z
  M 271.02 135.58
  A 15.02 15.02 0.0 0 0 256.00 120.56
  A 15.02 15.02 0.0 0 0 240.98 135.58
  A 15.02 15.02 0.0 0 0 256.00 150.60
  A 15.02 15.02 0.0 0 0 271.02 135.58
  Z"
/>
</svg>
