<svg width="24" height="24" viewBox="0 0 24 24" fill="none" xmlns="http://www.w3.org/2000/svg">
<path d="M6.42861 16.7148L3.85718 21.8577H21L18.4286 16.7148" stroke="#444444" stroke-miterlimit="10"/>
<path d="M18.4286 9C18.4286 12.7029 12.4286 18.75 12.4286 18.75C12.4286 18.75 6.42859 12.7029 6.42859 9C6.42859 5.20286 9.52887 3 12.4286 3C15.3283 3 18.4286 5.20286 18.4286 9Z" stroke="#444444" stroke-miterlimit="10" stroke-linecap="square"/>
<path d="M12.4286 10.7137C13.3754 10.7137 14.1429 9.94622 14.1429 8.99944C14.1429 8.05267 13.3754 7.28516 12.4286 7.28516C11.4819 7.28516 10.7144 8.05267 10.7144 8.99944C10.7144 9.94622 11.4819 10.7137 12.4286 10.7137Z" stroke="#444444" stroke-miterlimit="10" stroke-linecap="square"/>
</svg>
