<svg width="23" height="21" viewBox="0 0 23 21" fill="none" xmlns="http://www.w3.org/2000/svg">
<path d="M22 0.833984H1V15.1522H7.68182L11.5 19.9249L15.3182 15.1522H22V0.833984Z" stroke="#444444" stroke-miterlimit="10" stroke-linecap="square"/>
<path fill-rule="evenodd" clip-rule="evenodd" d="M5.78337 9.13906C6.36327 9.13906 6.83337 8.66896 6.83337 8.08906C6.83337 7.50916 6.36327 7.03906 5.78337 7.03906C5.20347 7.03906 4.73337 7.50916 4.73337 8.08906C4.73337 8.66896 5.20347 9.13906 5.78337 9.13906ZM11.5107 9.13906C12.0906 9.13906 12.5607 8.66896 12.5607 8.08906C12.5607 7.50916 12.0906 7.03906 11.5107 7.03906C10.9308 7.03906 10.4607 7.50916 10.4607 8.08906C10.4607 8.66896 10.9308 9.13906 11.5107 9.13906ZM18.2881 8.08906C18.2881 8.66896 17.818 9.13906 17.2381 9.13906C16.6582 9.13906 16.1881 8.66896 16.1881 8.08906C16.1881 7.50916 16.6582 7.03906 17.2381 7.03906C17.818 7.03906 18.2881 7.50916 18.2881 8.08906Z" fill="#444444"/>
</svg>
