<svg width="24" height="24" viewBox="0 0 24 24" fill="none" xmlns="http://www.w3.org/2000/svg">
<path d="M21.6923 22.6153H2.30768C2.13753 22.6153 1.98113 22.5216 1.90068 22.3715C1.82045 22.2214 1.82923 22.0393 1.92366 21.8978L5.61597 16.3593C5.70161 16.2309 5.84562 16.1538 5.99999 16.1538H18C18.1544 16.1538 18.2984 16.2309 18.384 16.3593L22.0763 21.8978C22.1707 22.0393 22.1795 22.2214 22.0993 22.3715C22.0188 22.5216 21.8624 22.6153 21.6923 22.6153Z" fill="#9BCED3"/>
<path d="M12 1.38452C8.17649 1.38452 5.0769 4.48408 5.0769 8.3076C5.0769 12.438 10.3191 17.7676 11.6802 19.0818C11.8596 19.2549 12.1404 19.2549 12.3197 19.0818C13.6808 17.7676 18.9231 12.438 18.9231 8.3076C18.9231 4.48408 15.8235 1.38452 12 1.38452Z" fill="#E86C60"/>
<path d="M12 10.6154C13.2745 10.6154 14.3077 9.5822 14.3077 8.30769C14.3077 7.03319 13.2745 6 12 6C10.7255 6 9.69232 7.03319 9.69232 8.30769C9.69232 9.5822 10.7255 10.6154 12 10.6154Z" fill="white"/>
</svg>
