<svg width="22" height="22" viewBox="0 0 22 22" fill="none" xmlns="http://www.w3.org/2000/svg">
    <path d="M20.6923 21.6153H1.30768C1.13753 21.6153 0.981131 21.5216 0.900675 21.3715C0.820446 21.2214 0.829234 21.0393 0.92366 20.8978L4.61597 15.3593C4.70161 15.2309 4.84562 15.1538 4.99999 15.1538H17C17.1544 15.1538 17.2984 15.2309 17.384 15.3593L21.0763 20.8978C21.1707 21.0393 21.1795 21.2214 21.0993 21.3715C21.0188 21.5216 20.8624 21.6153 20.6923 21.6153Z" fill="#9BCED3"/>
    <path d="M11 0.384521C7.1765 0.384521 4.07692 3.48408 4.07692 7.3076C4.07692 11.438 9.31915 16.7676 10.6803 18.0818C10.8596 18.2549 11.1404 18.2549 11.3197 18.0818C12.6808 16.7676 17.9231 11.438 17.9231 7.3076C17.9231 3.48408 14.8235 0.384521 11 0.384521Z" fill="#E86C60"/>
    <path d="M11 9.61538C12.2745 9.61538 13.3077 8.5822 13.3077 7.30769C13.3077 6.03319 12.2745 5 11 5C9.7255 5 8.69231 6.03319 8.69231 7.30769C8.69231 8.5822 9.7255 9.61538 11 9.61538Z" fill="white"/>
</svg>
