<svg width="16" height="17" viewBox="0 0 16 17" fill="none" xmlns="http://www.w3.org/2000/svg">
    <path fill-rule="evenodd" clip-rule="evenodd"
        d="M4.56904 1.71214C5.5737 0.707478 6.93631 0.143066 8.35712 0.143066C9.77792 0.143066 11.1405 0.707478 12.1452 1.71214C13.1498 2.7168 13.7143 4.07941 13.7143 5.50021V7.64307C13.7143 8.69136 14.1811 9.34066 14.6963 9.92463C14.7614 9.99831 14.8295 10.0734 14.8986 10.1494C15.0941 10.3647 15.2968 10.5879 15.4558 10.8105C15.6802 11.1246 15.8571 11.4871 15.8571 11.9288C15.8571 12.3835 15.5937 12.762 15.2168 13.0571C14.8399 13.3522 14.3099 13.5982 13.668 13.7968C12.3806 14.195 10.556 14.4288 8.35712 14.4288C6.15822 14.4288 4.33363 14.195 3.04621 13.7968C2.40432 13.5982 1.87433 13.3522 1.49742 13.0571C1.12058 12.762 0.857117 12.3835 0.857117 11.9288C0.857117 11.4871 1.03406 11.1246 1.25846 10.8105C1.41742 10.5879 1.62013 10.3647 1.81568 10.1494C1.88472 10.0734 1.95287 9.99831 2.01789 9.92463C2.53316 9.34066 2.99997 8.69136 2.99997 7.64307V5.50021C2.99997 4.07941 3.56439 2.7168 4.56904 1.71214ZM8.35712 0.857352C7.12575 0.857352 5.94483 1.34651 5.07412 2.21721C4.20342 3.08792 3.71426 4.26885 3.71426 5.50021V7.64307C3.71426 8.95191 3.10965 9.7669 2.55349 10.3972C2.4708 10.4909 2.39196 10.5778 2.31713 10.6602C2.13261 10.8634 1.97253 11.0397 1.8397 11.2257C1.66231 11.474 1.5714 11.6919 1.5714 11.9288C1.5714 12.0812 1.65615 12.2741 1.9378 12.4947C2.21937 12.7152 2.65813 12.929 3.25731 13.1144C4.45203 13.484 6.19887 13.7145 8.35712 13.7145C10.5154 13.7145 12.2622 13.484 13.4569 13.1144C14.0561 12.929 14.4949 12.7152 14.7764 12.4947C15.0581 12.2741 15.1428 12.0812 15.1428 11.9288C15.1428 11.6919 15.0519 11.474 14.8745 11.2257C14.7417 11.0397 14.5816 10.8634 14.3971 10.6602C14.3223 10.5778 14.2434 10.4909 14.1607 10.3972C13.6046 9.7669 13 8.95191 13 7.64307V5.50021C13 4.26885 12.5108 3.08792 11.6401 2.21721C10.7694 1.34651 9.58848 0.857352 8.35712 0.857352Z"
        fill="white" />
    <path
        d="M8.35713 15.5001C7.63499 15.5001 6.95642 15.4759 6.31785 15.4287C6.45399 15.863 6.7252 16.2425 7.092 16.5119C7.4588 16.7813 7.90202 16.9266 8.35713 16.9266C8.81224 16.9266 9.25547 16.7813 9.62227 16.5119C9.98906 16.2425 10.2603 15.863 10.3964 15.4287C9.75785 15.4759 9.07928 15.5001 8.35713 15.5001Z"
        fill="white" />
</svg>
