<svg width="40" height="40" viewBox="0 0 40 40" fill="none" xmlns="http://www.w3.org/2000/svg">
<path d="M30.7142 25.0001L34.9999 20.7144L30.7142 16.4287V10.7144H24.9999L20.7142 6.42871L16.4285 10.7144H10.7142V16.4287L6.42848 20.7144L10.7142 25.0001V30.7144H16.4285L20.7142 35.0001L24.9999 30.7144H30.7142V25.0001Z" fill="#E7AF55" stroke="#E7AF55" stroke-miterlimit="10" stroke-linecap="square"/>
<path d="M24.9999 16.4287L16.4285 25.0001" stroke="#FDF7EE" stroke-miterlimit="10" stroke-linecap="square"/>
<path d="M17.5 18.8333C18.2364 18.8333 18.8333 18.2364 18.8333 17.5C18.8333 16.7636 18.2364 16.1667 17.5 16.1667C16.7636 16.1667 16.1667 16.7636 16.1667 17.5C16.1667 18.2364 16.7636 18.8333 17.5 18.8333ZM19.5 17.5C19.5 18.6046 18.6046 19.5 17.5 19.5C16.3954 19.5 15.5 18.6046 15.5 17.5C15.5 16.3954 16.3954 15.5 17.5 15.5C18.6046 15.5 19.5 16.3954 19.5 17.5Z" fill="#E7AF55" stroke="#FDF7EE"/>
<path d="M24.1669 25.5003C24.9033 25.5003 25.5003 24.9034 25.5003 24.167C25.5003 23.4306 24.9033 22.8337 24.1669 22.8337C23.4306 22.8337 22.8336 23.4306 22.8336 24.167C22.8336 24.9034 23.4306 25.5003 24.1669 25.5003ZM26.1669 24.167C26.1669 25.2716 25.2715 26.167 24.1669 26.167C23.0624 26.167 22.1669 25.2716 22.1669 24.167C22.1669 23.0624 23.0624 22.167 24.1669 22.167C25.2715 22.167 26.1669 23.0624 26.1669 24.167Z" fill="#E7AF55" stroke="#FDF7EE"/>
</svg>
