<svg width="24" height="24" viewBox="0 0 24 24" fill="none" xmlns="http://www.w3.org/2000/svg">
<path fill-rule="evenodd" clip-rule="evenodd" d="M12 3C9.23858 3 7 5.23858 7 8C7 10.7614 9.23858 13 12 13C14.7614 13 17 10.7614 17 8C17 5.23858 14.7614 3 12 3ZM4 22C4 19.8783 4.84285 17.8434 6.34315 16.3431C7.84344 14.8429 9.87827 14 12 14C14.1217 14 16.1566 14.8429 17.6569 16.3431C19.1571 17.8434 20 19.8783 20 22H18H7.75736C7.75736 21.9595 7.48418 21.9676 7.04932 21.9806C6.76012 21.9892 6.39941 22 6 22H4Z" fill="#73a435"/>
</svg>
