<svg width="14" height="12" viewBox="0 0 14 12" fill="none" xmlns="http://www.w3.org/2000/svg">
<path d="M13.2857 0.285156H0.714251C0.562699 0.285156 0.417353 0.34536 0.31019 0.452524C0.203026 0.559687 0.142822 0.705033 0.142822 0.856585L0.142822 11.1423C0.142822 11.2939 0.203026 11.4392 0.31019 11.5464C0.417353 11.6535 0.562699 11.7137 0.714251 11.7137H13.2857C13.4372 11.7137 13.5826 11.6535 13.6897 11.5464C13.7969 11.4392 13.8571 11.2939 13.8571 11.1423V0.856585C13.8571 0.705033 13.7969 0.559687 13.6897 0.452524C13.5826 0.34536 13.4372 0.285156 13.2857 0.285156V0.285156ZM12.7143 1.42801V7.31373L10.2908 4.48516C10.2375 4.42287 10.1715 4.37277 10.0972 4.33827C10.0228 4.30376 9.94192 4.28564 9.85996 4.28516C9.77734 4.27955 9.69461 4.29445 9.61914 4.32855C9.54367 4.36265 9.4778 4.41487 9.42739 4.48059L5.82739 8.59201L3.97539 6.7383C3.91959 6.68172 3.85246 6.63756 3.77841 6.60871C3.70436 6.57986 3.62505 6.56696 3.54568 6.57087C3.46638 6.57441 3.38869 6.59442 3.31756 6.62964C3.24643 6.66486 3.18342 6.71452 3.13254 6.77544L1.28568 8.99259V1.42801H12.7143Z" fill="#444444"/>
<path d="M5.28568 4.85603C5.91686 4.85603 6.42854 4.34435 6.42854 3.71317C6.42854 3.08199 5.91686 2.57031 5.28568 2.57031C4.6545 2.57031 4.14282 3.08199 4.14282 3.71317C4.14282 4.34435 4.6545 4.85603 5.28568 4.85603Z" fill="#444444"/>
</svg>
