<svg width="24" height="24" viewBox="0 0 24 24" fill="none" xmlns="http://www.w3.org/2000/svg">
<path d="M7.75 8C7.75 5.65279 9.65279 3.75 12 3.75C14.3472 3.75 16.25 5.65279 16.25 8C16.25 10.3472 14.3472 12.25 12 12.25C9.65279 12.25 7.75 10.3472 7.75 8Z" stroke="#757575" stroke-width="1.5"/>
<path d="M6 21.25H4.78887C4.96014 19.6028 5.69178 18.0552 6.87348 16.8735C8.23311 15.5138 10.0772 14.75 12 14.75C13.9228 14.75 15.7669 15.5138 17.1265 16.8735C18.3082 18.0552 19.0399 19.6028 19.2111 21.25H18H7.89267C7.8847 21.2482 7.87793 21.2468 7.87251 21.2457C7.78626 21.2281 7.70139 21.2239 7.65077 21.222C7.53662 21.2179 7.3873 21.2208 7.23355 21.225C7.16717 21.2267 7.09664 21.2288 7.02226 21.2311C6.7336 21.2397 6.38701 21.25 6 21.25Z" stroke="#757575" stroke-width="1.5"/>
</svg>
