<svg width="24" height="24" viewBox="0 0 24 24" fill="none" xmlns="http://www.w3.org/2000/svg">
<path d="M5.57143 17.5723H19.2857" stroke="#444444" stroke-miterlimit="10"/>
<path d="M17.5714 21.8571H7.28571C6.83106 21.8571 6.39502 21.6765 6.07353 21.355C5.75204 21.0335 5.57143 20.5975 5.57143 20.1429V4.71429C5.57143 4.25963 5.75204 3.82359 6.07353 3.5021C6.39502 3.18061 6.83106 3 7.28571 3H17.5714C18.0261 3 18.4621 3.18061 18.7836 3.5021C19.1051 3.82359 19.2857 4.25963 19.2857 4.71429V20.1429C19.2857 20.5975 19.1051 21.0335 18.7836 21.355C18.4621 21.6765 18.0261 21.8571 17.5714 21.8571Z" stroke="#444444" stroke-miterlimit="10" stroke-linecap="square"/>
<rect x="10.0001" y="19" width="5" height="1" rx="0.5" fill="#444444"/>
</svg>
