<svg width="21" height="20" viewBox="0 0 21 20" fill="none" xmlns="http://www.w3.org/2000/svg">
<path d="M1.20837 16.389L8.84466 1.95303C8.9972 1.66474 9.22544 1.42349 9.50484 1.25523C9.78423 1.08696 10.1042 0.998047 10.4304 0.998047C10.7565 0.998047 11.0765 1.08696 11.3559 1.25523C11.6353 1.42349 11.8636 1.66474 12.0161 1.95303L19.6524 16.389C19.7957 16.6615 19.866 16.9664 19.8565 17.274C19.8469 17.5817 19.7578 17.8817 19.5979 18.1447C19.4379 18.4077 19.2126 18.6248 18.9438 18.7748C18.675 18.9249 18.3719 19.0027 18.0641 19.0007H2.79323C2.4857 19.0021 2.18305 18.9238 1.91472 18.7736C1.64639 18.6233 1.42152 18.4061 1.26197 18.1432C1.10243 17.8803 1.01364 17.5806 1.00425 17.2732C0.994857 16.9658 1.06518 16.6612 1.20837 16.389V16.389Z" stroke="#444444" stroke-miterlimit="10" stroke-linecap="square"/>
<path d="M10.4287 7V12.1429" stroke="#444444" stroke-miterlimit="10" stroke-linecap="square"/>
<path d="M10.4288 16.4289C11.1389 16.4289 11.7145 15.8532 11.7145 15.1431C11.7145 14.4331 11.1389 13.8574 10.4288 13.8574C9.7187 13.8574 9.14307 14.4331 9.14307 15.1431C9.14307 15.8532 9.7187 16.4289 10.4288 16.4289Z" fill="#444444"/>
</svg>
