<?xml version="1.0" encoding="UTF-8" standalone="no"?>
<!DOCTYPE svg PUBLIC "-//W3C//DTD SVG 1.1//EN" "http://www.w3.org/Graphics/SVG/1.1/DTD/svg11.dtd">
<svg xmlns="http://www.w3.org/2000/svg" version="1.1" viewBox="0.00 0.00 512.00 512.00">
<path fill="#757575" d="
  M 347.33 239.96
  Q 401.41 240.08 455.50 239.98
  C 473.87 239.94 490.18 252.42 494.66 270.24
  Q 496.01 275.60 496.01 289.87
  Q 495.99 350.43 495.95 411.00
  C 495.93 427.45 485.25 442.08 469.36 446.49
  Q 463.91 448.01 449.50 448.01
  Q 251.25 447.99 53.00 448.00
  C 36.44 448.00 22.00 437.07 17.48 421.33
  Q 16.01 416.24 16.01 405.03
  Q 16.01 379.39 15.99 353.74
  Q 15.98 339.50 17.42 333.86
  C 21.89 316.44 37.92 304.15 56.25 304.11
  Q 110.63 304.00 164.95 303.98
  A 0.31 0.31 0.0 0 0 165.26 303.67
  Q 165.28 241.12 165.26 178.50
  Q 165.26 163.83 166.50 158.59
  C 170.70 140.91 186.74 128.27 205.25 128.20
  Q 255.88 127.99 306.50 128.00
  C 324.79 128.01 341.72 141.09 345.66 159.07
  Q 346.76 164.13 346.73 179.01
  Q 346.66 209.20 346.77 239.40
  Q 346.77 239.96 347.33 239.96
  Z
  M 205.36 160.00
  C 200.58 160.00 197.27 164.07 197.27 168.50
  Q 197.27 291.97 197.27 415.54
  Q 197.27 416.00 197.73 416.00
  L 314.48 416.00
  A 0.25 0.25 0.0 0 0 314.73 415.75
  Q 314.73 294.00 314.74 172.19
  Q 314.74 166.51 313.83 164.42
  Q 311.91 159.99 306.25 159.99
  Q 255.80 160.01 205.36 160.00
  Z
  M 458.91 272.41
  A 5.80 5.78 -34.1 0 0 456.77 272.00
  L 347.74 272.00
  Q 347.22 272.00 347.22 272.52
  L 347.22 415.48
  Q 347.22 415.98 347.72 415.98
  Q 402.21 416.04 456.71 415.99
  C 460.28 415.99 463.97 415.40 463.98 411.25
  Q 464.24 346.91 464.47 282.57
  C 464.49 277.50 463.61 274.30 458.91 272.41
  Z
  M 53.62 336.60
  C 50.92 337.64 48.51 340.61 48.51 343.71
  Q 48.45 377.87 48.51 411.25
  A 4.76 4.75 0.0 0 0 53.27 416.00
  L 165.01 416.00
  A 0.26 0.26 0.0 0 0 165.27 415.74
  L 165.27 336.27
  A 0.27 0.27 0.0 0 0 165.00 336.00
  Q 112.25 336.00 59.44 336.00
  Q 55.17 336.00 53.62 336.60
  Z"
/>
</svg>
