<svg width="24" height="24" viewBox="0 0 24 24" fill="none" xmlns="http://www.w3.org/2000/svg">
<path d="M12.4286 13.286C13.3753 13.286 14.1429 12.5185 14.1429 11.5717C14.1429 10.6249 13.3753 9.85742 12.4286 9.85742C11.4818 9.85742 10.7143 10.6249 10.7143 11.5717C10.7143 12.5185 11.4818 13.286 12.4286 13.286Z" stroke="#444444" stroke-miterlimit="10" stroke-linecap="square"/>
<path d="M19.2857 12.4286C19.2848 11.9348 19.2308 11.4425 19.1246 10.9603L21.4508 9.19886L19.7365 6.22971L17.0425 7.36629C16.3131 6.69739 15.4471 6.19469 14.5045 5.89286L14.1428 3H10.7143L10.3526 5.89286C9.40996 6.19469 8.54405 6.69739 7.81455 7.36629L5.12055 6.22971L3.40627 9.19886L5.73255 10.9603C5.51741 11.9273 5.51741 12.9298 5.73255 13.8969L3.40627 15.6583L5.12055 18.6274L7.81455 17.4909C8.54405 18.1598 9.40996 18.6625 10.3526 18.9643L10.7143 21.8571H14.1428L14.5045 18.9643C15.4471 18.6625 16.3131 18.1598 17.0425 17.4909L19.7365 18.6274L21.4508 15.6583L19.1246 13.8969C19.2308 13.4146 19.2848 12.9224 19.2857 12.4286V12.4286Z" stroke="#444444" stroke-miterlimit="10" stroke-linecap="square"/>
<path d="M12.4286 13.2852V14.9994" stroke="#444444" stroke-miterlimit="10" stroke-linecap="square"/>
</svg>
