<svg width="11" height="8" viewBox="0 0 11 8" fill="none" xmlns="http://www.w3.org/2000/svg">
<path d="M10.7699 0.230117C10.6225 0.0827743 10.4227 0 10.2143 0C10.0059 0 9.80601 0.0827743 9.65865 0.230117L3.92857 5.96024L1.34135 3.37296C1.26839 3.3 1.18177 3.24212 1.08645 3.20263C0.991118 3.16314 0.888946 3.14281 0.785763 3.1428C0.682579 3.1428 0.580405 3.16312 0.485075 3.2026C0.389744 3.24208 0.303123 3.29996 0.230158 3.37291C0.157194 3.44587 0.0993135 3.53249 0.0598229 3.62782C0.0203322 3.72314 4.42392e-06 3.82531 7.22005e-10 3.9285C-4.42248e-06 4.03168 0.0203145 4.13386 0.059797 4.22919C0.0992795 4.32452 0.157152 4.41114 0.230111 4.4841L3.37296 7.62695C3.52032 7.7743 3.72018 7.85709 3.92857 7.85709C4.13697 7.85709 4.33683 7.7743 4.48419 7.62695L10.7699 1.34126C10.9172 1.19391 11 0.994065 11 0.785687C11 0.577309 10.9172 0.377465 10.7699 0.230117Z" fill="white"/>
</svg>
