<svg width="80" height="80" viewBox="0 0 80 80" fill="none" xmlns="http://www.w3.org/2000/svg">
<path d="M12.5 35.8333V17.5C12.5 16.837 12.7634 16.2011 13.2322 15.7322C13.7011 15.2634 14.337 15 15 15H65C65.663 15 66.2989 15.2634 66.7678 15.7322C67.2366 16.2011 67.5 16.837 67.5 17.5V35.8333C67.5 62.0881 45.2169 70.7865 40.7676 72.2616C40.2702 72.4328 39.7298 72.4328 39.2324 72.2616C34.7831 70.7865 12.5 62.0881 12.5 35.8333Z" stroke="black" stroke-linecap="round" stroke-linejoin="round"/>
<path d="M40 30V42.5" stroke="black" stroke-linecap="round" stroke-linejoin="round"/>
<path d="M40 55.25C41.1046 55.25 42 54.3546 42 53.25C42 52.1454 41.1046 51.25 40 51.25C38.8954 51.25 38 52.1454 38 53.25C38 54.3546 38.8954 55.25 40 55.25Z" fill="black"/>
</svg>
