<svg width="12" height="12" viewBox="0 0 12 12" fill="none" xmlns="http://www.w3.org/2000/svg">
<path d="M10.7759 4.51812L7.74123 4.07712L6.38566 1.32912C6.34625 1.2622 6.29005 1.20673 6.22263 1.16819C6.15521 1.12965 6.07889 1.10938 6.00123 1.10938C5.92357 1.10938 5.84725 1.12965 5.77983 1.16819C5.71241 1.20673 5.65621 1.2622 5.6168 1.32912L4.25866 4.07712L1.22394 4.51812C1.1448 4.52954 1.07044 4.56287 1.00925 4.61435C0.948068 4.66583 0.902505 4.7334 0.877715 4.80942C0.852925 4.88544 0.849896 4.96688 0.868972 5.04453C0.888047 5.12218 0.928465 5.19295 0.985657 5.24883L3.18209 7.38912L2.66394 10.4118C2.65044 10.4906 2.65925 10.5717 2.68939 10.6457C2.71953 10.7198 2.76979 10.784 2.83448 10.831C2.89918 10.8779 2.97573 10.9059 3.05549 10.9117C3.13525 10.9174 3.21502 10.9008 3.2858 10.8635L5.99994 9.43683L8.71409 10.8635C8.78486 10.9008 8.86464 10.9174 8.9444 10.9117C9.02415 10.9059 9.10071 10.8779 9.1654 10.831C9.2301 10.784 9.28036 10.7198 9.3105 10.6457C9.34063 10.5717 9.34945 10.4906 9.33594 10.4118L8.8178 7.38912L11.0142 5.24883C11.0714 5.19301 11.1118 5.12231 11.131 5.04472C11.1501 4.96713 11.1471 4.88574 11.1224 4.80974C11.0977 4.73375 11.0523 4.66617 10.9912 4.61463C10.9301 4.5631 10.8559 4.52967 10.7768 4.51812H10.7759Z" fill="#E7AF55"/>
</svg>
