<svg width="20" height="20" viewBox="0 0 20 20" fill="none" xmlns="http://www.w3.org/2000/svg">
<path d="M2.76645 11.2019C2.59319 10.9541 2.50026 10.6592 2.50026 10.3569C2.50026 10.0546 2.59319 9.75958 2.76645 9.51186C3.89002 7.92115 6.65645 4.64258 10.3572 4.64258C14.0579 4.64258 16.8243 7.92115 17.9479 9.51186C18.1211 9.75958 18.2141 10.0546 18.2141 10.3569C18.2141 10.6592 18.1211 10.9541 17.9479 11.2019C16.8243 12.7926 14.0579 16.0711 10.3572 16.0711C6.65645 16.0711 3.89002 12.7926 2.76645 11.2019Z" stroke="#8D8D8D" stroke-miterlimit="10" stroke-linecap="square"/>
<path d="M10.3571 13.2143C11.9351 13.2143 13.2143 11.9351 13.2143 10.3571C13.2143 8.77919 11.9351 7.5 10.3571 7.5C8.77919 7.5 7.5 8.77919 7.5 10.3571C7.5 11.9351 8.77919 13.2143 10.3571 13.2143Z" stroke="#8D8D8D" stroke-miterlimit="10" stroke-linecap="square"/>
</svg>
