<svg width="23" height="22" viewBox="0 0 23 22" fill="none" xmlns="http://www.w3.org/2000/svg">
<path d="M5.77273 2.4082H2.90909C1.85432 2.4082 1 3.26252 1 4.31729C1 5.37207 1.85432 6.22638 2.90909 6.22638" stroke="#444444" stroke-miterlimit="10" stroke-linecap="square"/>
<path d="M5.77264 6.22727V0.5H19.1363V6.22727" stroke="#444444" stroke-miterlimit="10" stroke-linecap="square"/>
<path d="M22 6.22745H2.90909C1.85432 6.22745 1 5.37313 1 4.31836V18.6365C1 20.2182 2.28195 21.5002 3.86364 21.5002H22V6.22745Z" stroke="#444444" stroke-miterlimit="10" stroke-linecap="square"/>
<path d="M16.2727 15.7733C17.3271 15.7733 18.1818 14.9185 18.1818 13.8642C18.1818 12.8098 17.3271 11.9551 16.2727 11.9551C15.2184 11.9551 14.3636 12.8098 14.3636 13.8642C14.3636 14.9185 15.2184 15.7733 16.2727 15.7733Z" stroke="#444444" stroke-miterlimit="10" stroke-linecap="square"/>
</svg>
